# xmcd
#
# Track frame offsets:
# 200
# 12967
# 26682
# 43072
# 57982
# 66897
# 76570
# 88807
# 100480
# 110987
# 121882
# 134927
#
# Disc length: 1962 seconds
#
#
# Revision: 0
# Processed by: cddbd v1.5.1PL0 Copyright (c) Steve Scherf et al.
# Submitted via: FreeRIP 2.52 
#
DISCID=aa07a80c
DTITLE=Russ Jeffers - Russ Jeffers The Songwriter
DYEAR=1900
DGENRE=Country
TTITLE0=Smoky Mountain Love Affair
TTITLE1=The Lord's Coming Back Again
TTITLE2=Will You Marry Me
TTITLE3=Smoky Mountain Sunshine
TTITLE4=When The Blue In My Grass Turns Green
TTITLE5='Till I Can Be With Her Again
TTITLE6=Southbound
TTITLE7=I'll Proudly Wave Old Glory
TTITLE8=Row To Hoe
TTITLE9=Bluegrass Melodies
TTITLE10=Does Anybody Want To Sing My Songs
TTITLE11=Life Is The Beginning
EXTD=
EXTT0=
EXTT1=
EXTT2=
EXTT3=
EXTT4=
EXTT5=
EXTT6=
EXTT7=
EXTT8=
EXTT9=
EXTT10=
EXTT11=
PLAYORDER=
